<svg xmlns="http://www.w3.org/2000/svg" viewBox="0 0 512 653" width="512" height="653" preserveAspectRatio="xMidYMid meet" style="width: 100%; height: 100%; transform: translate3d(0px, 0px, 0px);"><defs><clipPath id="__lottie_element_2"><rect width="512" height="653" x="0" y="0"></rect></clipPath><radialGradient id="__lottie_element_6" spreadMethod="pad" gradientUnits="userSpaceOnUse" cx="0.4228260815143585" cy="107.951171875" r="146.86411772375894" fx="0.21199999749660492" fy="203.38999938964844"><stop offset="4%" stop-color="rgb(208,0,227)"></stop><stop offset="25%" stop-color="rgb(124,128,225)"></stop><stop offset="50%" stop-color="rgb(41,255,223)"></stop><stop offset="75%" stop-color="rgb(148,151,172)"></stop><stop offset="99%" stop-color="rgb(255,48,120)"></stop><stop offset="100%" stop-color="rgb(254,48,120)"></stop><stop offset="100%" stop-color="rgb(252,48,119)"></stop></radialGradient><linearGradient id="__lottie_element_10" spreadMethod="pad" gradientUnits="userSpaceOnUse" x1="-130.88082885742188" y1="-29.797040939331055" x2="100" y2="0"><stop offset="4%" stop-color="rgb(208,0,227)"></stop><stop offset="25%" stop-color="rgb(124,128,225)"></stop><stop offset="50%" stop-color="rgb(41,255,223)"></stop><stop offset="75%" stop-color="rgb(148,151,172)"></stop><stop offset="99%" stop-color="rgb(255,48,120)"></stop><stop offset="100%" stop-color="rgb(254,48,120)"></stop><stop offset="100%" stop-color="rgb(252,48,119)"></stop></linearGradient><radialGradient id="__lottie_element_16" spreadMethod="pad" gradientUnits="userSpaceOnUse" cx="0.4228260815143585" cy="107.951171875" r="146.86411772375894" fx="0.4128900033813646" fy="107.96194353316311"><stop offset="4%" stop-color="rgb(208,0,227)"></stop><stop offset="25%" stop-color="rgb(124,128,225)"></stop><stop offset="50%" stop-color="rgb(41,255,223)"></stop><stop offset="75%" stop-color="rgb(148,151,172)"></stop><stop offset="99%" stop-color="rgb(255,48,120)"></stop><stop offset="100%" stop-color="rgb(254,48,120)"></stop><stop offset="100%" stop-color="rgb(252,48,119)"></stop></radialGradient></defs><g clip-path="url(#__lottie_element_2)"><g transform="matrix(2.359999895095825,0.000007278658358700341,-0.000007278658358700341,2.359999895095825,138.6325225830078,109.44769287109375)" opacity="1" style="display: block;"><g opacity="1" transform="matrix(1,0,0,1,49.731998443603516,91.85299682617188)"><path fill="url(#__lottie_element_16)" fill-rule="evenodd" fill-opacity="1" d=" M4.409999847412109,-52.32699966430664 C40.823001861572266,-50.16299819946289 49.731998443603516,-20.86400032043457 49.731998443603516,14.968999862670898 C49.731998443603516,52.20899963378906 20.486000061035156,89.98300170898438 0,89.98300170898438 C-20.486000061035156,89.98300170898438 -49.731998443603516,52.20899963378906 -49.731998443603516,14.968999862670898 C-49.731998443603516,-17.650999069213867 -42.35499954223633,-44.85900115966797 -13.562999725341797,-51.10900115966797 C-11.123000144958496,-51.57400131225586 -4.026000022888184,-53.03099822998047 4.409999847412109,-52.32699966430664 C4.409999847412109,-52.32699966430664 4.409999847412109,-52.32699966430664 4.409999847412109,-52.32699966430664z"></path></g></g><g transform="matrix(2.359999895095825,0.000007278658358700341,-0.000007278658358700341,2.359999895095825,138.6325225830078,109.90121459960938)" opacity="1" style="display: block;"><g opacity="1" transform="matrix(1,0,0,1,49.731998443603516,91.85299682617188)"><path fill="rgb(255,255,255)" fill-opacity="1" d=" M-9.109999656677246,62.104000091552734 C-7.769000053405762,62.643001556396484 -3.3310000896453857,64.0979995727539 -0.08299999684095383,63.9109992980957 C3.1649999618530273,63.7239990234375 7.547999858856201,62.57600021362305 8.79699993133545,62 C8.79699993133545,62 11.406000137329102,67.65799713134766 11.406000137329102,67.65799713134766 C9.711000442504883,68.43800354003906 4.1529998779296875,69.93099975585938 -0.08299999684095383,70.15399932861328 C-4.318999767303467,70.37699890136719 -9.684000015258789,68.58399963378906 -11.425999641418457,67.88400268554688 C-11.425999641418457,67.88400268554688 -9.109999656677246,62.104000091552734 -9.109999656677246,62.104000091552734z"></path></g></g><g transform="matrix(2.359999895095825,0.000007278658358700341,-0.000007278658358700341,2.359999895095825,138.6325225830078,109.90121459960938)" opacity="1" style="display: block;"><g opacity="1" transform="matrix(1,0,0,1,49.731998443603516,91.85299682617188)"><path fill="rgb(255,255,255)" fill-opacity="1" d=" M-35.87099838256836,20.493000030517578 C-38.07899856567383,29.10300064086914 -35.939998626708984,38.672000885009766 -29.452999114990234,45.42599868774414 C-22.96500015258789,52.180999755859375 -13.777000427246094,54.409000396728516 -5.506999969482422,52.108001708984375 C-3.2980000972747803,43.499000549316406 -5.436999797821045,33.930999755859375 -11.925000190734863,27.177000045776367 C-18.413000106811523,20.422000885009766 -27.601999282836914,18.194000244140625 -35.87099838256836,20.493000030517578 C-35.87099838256836,20.493000030517578 -35.87099838256836,20.493000030517578 -35.87099838256836,20.493000030517578z"></path></g></g><g transform="matrix(2.359999895095825,0.000007278658358700341,-0.000007278658358700341,2.359999895095825,138.6325225830078,109.90121459960938)" opacity="1" style="display: block;"><g opacity="1" transform="matrix(1,0,0,1,49.731998443603516,91.85299682617188)"><path fill="rgb(255,255,255)" fill-opacity="1" d=" M36.21799850463867,20.493000030517578 C38.42599868774414,29.10300064086914 36.28799819946289,38.672000885009766 29.799999237060547,45.42599868774414 C23.312000274658203,52.180999755859375 14.125,54.409000396728516 5.855000019073486,52.108001708984375 C3.6470000743865967,43.499000549316406 5.784999847412109,33.930999755859375 12.272000312805176,27.177000045776367 C18.760000228881836,20.422000885009766 27.947999954223633,18.194000244140625 36.21799850463867,20.493000030517578 C36.21799850463867,20.493000030517578 36.21799850463867,20.493000030517578 36.21799850463867,20.493000030517578z"></path></g></g><g transform="matrix(1,0,0,1,0,70.5)" opacity="1" style="display: block;"><g opacity="1" transform="matrix(1,0,0,1,0,0)"><path fill="url(#__lottie_element_10)" fill-rule="evenodd" fill-opacity="1" d=" M225.07200622558594,134.74099731445312 C225.07200622558594,134.74099731445312 200.67300415039062,120.25299835205078 200.67300415039062,120.25299835205078 C200.67300415039062,120.25299835205078 188.1219940185547,107.44200134277344 188.1219940185547,107.44200134277344 C188.1219940185547,107.44200134277344 173.79100036621094,80.97200012207031 173.79100036621094,80.97200012207031 C173.79100036621094,80.97200012207031 168.41400146484375,61.356998443603516 168.41400146484375,61.356998443603516 C168.41400146484375,61.356998443603516 165.88600158691406,44.9379997253418 165.88600158691406,44.9379997253418 C165.88600158691406,44.9379997253418 188.45899963378906,46.9109992980957 188.45899963378906,46.9109992980957 C188.45899963378906,46.9109992980957 207.718994140625,53.12799835205078 207.718994140625,53.12799835205078 C207.718994140625,53.12799835205078 225.46800231933594,64.2040023803711 225.46800231933594,64.2040023803711 C225.46800231933594,64.2040023803711 240.40199279785156,80.78900146484375 240.40199279785156,80.78900146484375 C240.40199279785156,80.78900146484375 250.17300415039062,97.93499755859375 250.17300415039062,97.93499755859375 C250.17300415039062,97.93499755859375 254.27999877929688,110.197998046875 254.27999877929688,110.197998046875 C254.27999877929688,110.197998046875 253.78199768066406,124.78800201416016 253.78199768066406,124.78800201416016 C253.78199768066406,124.78800201416016 252.18899536132812,134.66400146484375 252.18899536132812,134.66400146484375 C252.18899536132812,134.66400146484375 225.07200622558594,134.74099731445312 225.07200622558594,134.74099731445312z"></path><g opacity="1" transform="matrix(1,0,0,1,0,0)"></g></g></g><g transform="matrix(1,0,0,1,0,70.5)" opacity="1" style="display: block;"><g opacity="1" transform="matrix(1,0,0,1,0,0)"><path fill="url(#__lottie_element_6)" fill-rule="evenodd" fill-opacity="1" d=" M265.4624328613281,132.11119079589844 C265.4624328613281,132.11119079589844 270.23858642578125,117.81105041503906 270.23858642578125,117.81105041503906 C270.23858642578125,117.81105041503906 280.2460021972656,104.6788101196289 280.2460021972656,104.6788101196289 C280.2460021972656,104.6788101196289 292.2467956542969,95.73423767089844 292.2467956542969,95.73423767089844 C292.2467956542969,95.73423767089844 305.4140930175781,91.08856964111328 305.4140930175781,91.08856964111328 C305.4140930175781,91.08856964111328 315.52899169921875,90.38609313964844 315.52899169921875,90.38609313964844 C315.52899169921875,90.38609313964844 315.7063903808594,72.65495300292969 315.7063903808594,72.65495300292969 C315.7063903808594,72.65495300292969 306.0880126953125,73.26404571533203 306.0880126953125,73.26404571533203 C306.0880126953125,73.26404571533203 292.1299133300781,76.9221420288086 292.1299133300781,76.9221420288086 C292.1299133300781,76.9221420288086 279.4701843261719,83.19480895996094 279.4701843261719,83.19480895996094 C279.4701843261719,83.19480895996094 268.76904296875,91.46186065673828 268.76904296875,91.46186065673828 C268.76904296875,91.46186065673828 261.2138977050781,100.78813934326172 261.2138977050781,100.78813934326172 C261.2138977050781,100.78813934326172 255.79190063476562,108.17371368408203 255.79190063476562,108.17371368408203 C255.79190063476562,108.17371368408203 252.87728881835938,116.43952178955078 252.87728881835938,116.43952178955078 C252.87728881835938,116.43952178955078 250.32894897460938,132.19613647460938 250.32894897460938,132.19613647460938 C250.32894897460938,132.19613647460938 265.4624328613281,132.11119079589844 265.4624328613281,132.11119079589844z"></path><g opacity="1" transform="matrix(1,0,0,1,0,0)"></g></g></g></g></svg>